<?xml version="1.0" encoding="utf-8"?>
<!-- Generator: Adobe Illustrator 22.1.0, SVG Export Plug-In . SVG Version: 6.00 Build 0)  -->
<svg version="1.1" id="レイヤー_1" xmlns="http://www.w3.org/2000/svg" xmlns:xlink="http://www.w3.org/1999/xlink" x="0px"
	 y="0px" viewBox="0 0 55.1 72.5" style="enable-background:new 0 0 55.1 72.5;" xml:space="preserve">
<style type="text/css">
	.st0{fill:#C81E14;}
</style>
<path class="st0" d="M4,72.4c2.7-0.7,48.6-0.3,49.2-0.2c0.3,0,0.5,0,0.7-0.1c0.7,0,1.3-0.3,1.2-1.1c-0.1-1-0.7-50.8-0.5-51.8
	c0.1-0.6-0.3-1-0.7-1.1c-0.3-0.1-0.6-0.1-0.9,0c-0.9,0.1-4.7,1.2-10.3,1.2c-3,0-5.1-0.3-6.5-0.9c-2-0.9-2.8-2.3-2.8-4.4
	c-0.1-3.6,2.4-4,2.1-8.2C35.1,1.5,31.2,0,26.7,0c-4.6,0-8.4,1.5-8.7,5.7c-0.3,4.2,1.9,4.7,2.1,8.2c0.1,1.6-0.1,2.7-0.8,3.6
	c-1.1,1.3-3.6,1.8-8.5,1.8c-4.4,0-7.3-0.5-8.6-0.7c-0.4-0.1-0.9-0.2-1.2,0.1c-0.1,0.1-0.2,0.2-0.2,0.5C0.5,20.1,0,23.4,0,27.9
	c0,6,0.7,8.4,2.5,9.2c0.7,0.3,1.6,0.4,2.7,0.3c3.5-0.2,3.9-2.5,8-2.2c4.2,0.3,5.6,4.2,5.6,8.9s-1.5,8.6-5.6,8.9
	c-4.2,0.3-4.6-2.3-8-2.2c-1,0-1.9,0.3-2.6,0.7C0.9,52.6,0,55.1,0,60.4c0,5.8,1.3,10.3,1.5,11.3C1.7,72.7,2.1,72.5,4,72.4z"/>
</svg>
