<?xml version="1.0" encoding="utf-8"?>
<!-- Generator: Adobe Illustrator 22.1.0, SVG Export Plug-In . SVG Version: 6.00 Build 0)  -->
<svg version="1.1" id="レイヤー_1" xmlns="http://www.w3.org/2000/svg" xmlns:xlink="http://www.w3.org/1999/xlink" x="0px"
	 y="0px" viewBox="0 0 86.5 72.1" style="enable-background:new 0 0 86.5 72.1;" xml:space="preserve">
<style type="text/css">
	.st0{fill:#C81E14;}
</style>
<path class="st0" d="M17.7,19.1c0.1,0.9,0.7,4.1,0.7,8.5c0,8.1-1.3,9.6-5.1,9.3c-3.4-0.2-3.8-2.4-7.8-2.1c-4,0.3-5.5,4.1-5.5,8.6
	c0,4.5,1.4,8.4,5.5,8.6c4,0.3,4.4-2.3,7.8-2.1c3.4,0.1,5.1,2,5.1,9.3c0,5.6-1.2,9.3-1.2,10.2c0,1.3,0.7,1.3,1.6,1.5
	c0.9,0.2,4.5,1.2,10.1,1.2c7.2,0,9-1.7,9.1-5.2c0.1-3.5-2.3-3.8-2.1-8c0.3-4.1,4-5.6,8.5-5.6c4.4,0,8.2,1.5,8.5,5.6
	c0.3,4.1-1.9,4.5-2.1,8c-0.3,3.9,1.2,5.2,9.1,5.2c4.3,0,7.4-0.5,8.4-0.7c0.9-0.2,0.6-1,0.5-1.5c-0.2-1.2-0.7-4.1-0.7-8.5
	c0-8.1,1.3-9.6,5.1-9.3c3.4,0.2,3.8,2.4,7.8,2.1c4-0.3,5.5-4.1,5.5-8.6c0-4.5-1.4-8.4-5.5-8.6c-4-0.3-4.4,2.3-7.8,2.1
	c-3.4-0.1-5.1-2-5.1-9.3c0-5.6,1-9.3,1.2-10.2c0.3-0.8-0.1-1.7-1-1.6c-0.9,0.1-4,0.7-8.4,0.7c-8,0-9.4-1.3-9.1-5.2
	c0.2-3.4,2.3-3.8,2.1-8c-0.3-4.1-4-5.6-8.5-5.6c-4.4,0-8.2,1.5-8.5,5.6c-0.3,4.1,2.2,4.5,2.1,8c-0.1,3.5-2,5.2-9.1,5.2
	c-5.5,0-9.1-1.1-10.1-1.2C17.9,17.4,17.5,18.3,17.7,19.1z"/>
</svg>
