<?xml version="1.0" encoding="utf-8"?>
<!-- Generator: Adobe Illustrator 22.1.0, SVG Export Plug-In . SVG Version: 6.00 Build 0)  -->
<svg version="1.1" id="レイヤー_1" xmlns="http://www.w3.org/2000/svg" xmlns:xlink="http://www.w3.org/1999/xlink" x="0px"
	 y="0px" viewBox="0 0 98.3 60" style="enable-background:new 0 0 98.3 60;" xml:space="preserve">
<style type="text/css">
	.st0{fill:#C81E14;}
</style>
<path class="st0" d="M94.7,22.6c-4.1-1.5-7.2,0.1-9,2.1c-1.6,1.8-3.4,2-5.1,1.1c-1.7-0.9-2.9-3.3-2.9-5c0-1.7-0.1-19.4-0.1-19.8
	c0-0.6-0.3-0.9-0.7-0.9c-0.5,0-17.2,0.1-18.9,0.1c-1.6,0-3.9,1.2-4.8,3.1c-0.9,1.8-0.7,3.7,1,5.4c1.9,1.9,3.4,5.2,2,9.5
	c-0.6,1.6-2.8,3.8-6.9,3.8c-4.1,0-7-1.6-7.8-4.9c-0.7-3.3,0.7-6.5,2.6-8.4C45.8,7,46,5,45.1,3.2c-0.9-1.8-3.2-3-4.8-3
	c-1.6,0-18.4-0.1-18.9-0.1c-0.5,0-0.7,0.3-0.7,0.9c0,0.5-0.1,18.1-0.1,19.8c0,1.7-1.2,4.1-2.9,5c-1.7,1-3.6,0.7-5.1-1
	c-1.8-2-4.8-3.5-8-2.7C1.5,22.9,0,26,0,30.3c0,4.3,2.1,6.6,3.6,7.2c4.1,1.5,7.2-0.1,9-2.1c1.6-1.8,3.4-2,5.1-1.1
	c1.7,0.9,2.9,3.3,2.9,5c0,1.7,0.1,19.4,0.1,19.8c0,0.6,0.3,0.9,0.7,0.9c0.5,0,17.2-0.1,18.9-0.1c1.6,0,3.9-1.2,4.8-3.1
	c0.9-1.8,0.7-3.7-1-5.4c-1.9-1.9-3.4-5.2-2-9.5c0.6-1.6,2.8-3.8,6.9-3.8c4.1,0,7,1.6,7.8,4.9c0.7,3.3-0.7,6.5-2.6,8.4
	c-1.7,1.7-1.9,3.6-1,5.4c0.9,1.8,3.2,3,4.8,3c1.6,0,18.4,0.1,18.9,0.1c0.5,0,0.7-0.3,0.7-0.9c0-0.5,0.1-18.1,0.1-19.8
	c0-1.7,1.2-4.1,2.9-5c1.7-1,3.6-0.7,5.1,1c1.8,2,4.8,3.5,8,2.7s4.7-3.9,4.7-8.2C98.3,25.5,96.3,23.1,94.7,22.6z"/>
</svg>
