<svg xmlns="http://www.w3.org/2000/svg" width="65.508" height="54.678" viewBox="0 0 65.508 54.678">
  <path id="ico_peace_01" d="M13.4,14.44a43.079,43.079,0,0,1,.53,6.437c0,6.134-.985,7.27-3.862,7.043C7.5,27.769,7.195,26.1,4.165,26.33S0,29.435,0,32.843,1.06,39.2,4.165,39.356c3.029.227,3.332-1.742,5.907-1.59,2.575.076,3.862,1.515,3.862,7.043a42.952,42.952,0,0,1-.909,7.725c0,.985.53.985,1.212,1.136a30.745,30.745,0,0,0,7.649.909c5.453,0,6.816-1.287,6.892-3.938s-1.742-2.878-1.59-6.059c.227-3.1,3.029-4.241,6.437-4.241,3.332,0,6.21,1.136,6.437,4.241s-1.439,3.408-1.59,6.059c-.227,2.954.909,3.938,6.892,3.938a34.759,34.759,0,0,0,6.361-.53c.682-.151.454-.757.379-1.136a36.731,36.731,0,0,1-.53-6.437c0-6.134.985-7.27,3.862-7.043,2.575.151,2.878,1.818,5.907,1.59s4.165-3.1,4.165-6.513S64.448,28.148,61.343,28c-3.029-.227-3.332,1.742-5.907,1.59-2.575-.076-3.862-1.515-3.862-7.043a31.646,31.646,0,0,1,.909-7.725c.227-.606-.076-1.287-.757-1.212a41.614,41.614,0,0,1-6.361.53c-6.059,0-7.119-.985-6.892-3.938.151-2.575,1.742-2.878,1.59-6.059C39.835,1.036,37.033-.1,33.625-.1c-3.332,0-6.21,1.136-6.437,4.241s1.666,3.408,1.59,6.059-1.515,3.938-6.892,3.938a37.073,37.073,0,0,1-7.649-.909C13.556,13.153,13.253,13.835,13.4,14.44Z" transform="translate(0 0.1)" fill="#c81e14"/>
</svg>
