<?xml version="1.0" encoding="utf-8"?>
<!-- Generator: Adobe Illustrator 22.1.0, SVG Export Plug-In . SVG Version: 6.00 Build 0)  -->
<svg version="1.1" id="レイヤー_2" xmlns="http://www.w3.org/2000/svg" xmlns:xlink="http://www.w3.org/1999/xlink" x="0px"
	 y="0px" viewBox="0 0 147 41.4" style="enable-background:new 0 0 147 41.4;" xml:space="preserve">
<style type="text/css">
	.st0{stroke:#000000;stroke-width:0.1417;stroke-miterlimit:10;}
</style>
<g>
	<path class="st0" d="M44.7,33.5c0-0.1,0.1-0.1,0.2-0.1c0.6,0.2,1.2,0.5,1.7,0.9c0.1,0.1,0.1,0.1,0,0.2c-0.1,0.1-0.2,0.3-0.3,0.4
		c-0.1,0.1-0.1,0.1-0.2,0c-0.5-0.4-1.1-0.7-1.8-1C44.5,33.8,44.6,33.6,44.7,33.5z M46.2,37.3c0.9-0.5,1.8-1,2.7-1.7
		c0.8-0.6,1.9-1.6,2.8-2.7c0,0.3,0.1,0.4,0.2,0.6c0,0.1,0,0.2,0,0.3c-0.8,0.9-1.7,1.7-2.6,2.4c-0.9,0.7-1.8,1.2-2.8,1.8
		c-0.2,0.1-0.4,0.2-0.5,0.3c-0.1,0.1-0.2,0.1-0.3,0c-0.1-0.1-0.3-0.4-0.5-0.6C45.5,37.6,45.8,37.4,46.2,37.3z M45.8,31.3
		c0.1-0.1,0.1-0.1,0.2,0c0.6,0.3,1.2,0.6,1.7,1c0.1,0.1,0.1,0.1,0,0.2c-0.1,0.1-0.2,0.3-0.3,0.4c-0.1,0.1-0.1,0-0.2,0
		c-0.5-0.4-1.1-0.8-1.7-1.1C45.6,31.7,45.7,31.5,45.8,31.3z"/>
	<path class="st0" d="M58.6,34c-0.5,0-1,0-1.4,0c-0.1,0-0.1,0-0.1-0.1c0-0.2-0.1-0.4-0.1-0.6c0.5,0,1,0.1,1.6,0.1h3.5
		c0.2,0,0.4,0,0.5-0.1c0.1-0.1,0.2-0.1,0.3,0c0.1,0.1,0.3,0.2,0.4,0.3c0.1,0.1,0.1,0.2,0,0.3C63.1,34,63,34.1,63,34.3
		c-0.8,1.9-2.1,3.3-4.1,4.4c-0.1,0.1-0.2,0.1-0.3,0c-0.1-0.1-0.3-0.2-0.5-0.3c2-1,3.5-2.4,4.2-4.3H58.6z M59.4,32
		c-0.5,0-0.9,0-1.4,0c-0.1,0-0.1,0-0.1-0.1c0-0.1,0-0.4,0-0.6c0.6,0.1,0.9,0.1,1.6,0.1h1.5c0.6,0,1,0,1.5,0c0.1,0,0.1,0,0.1,0.1
		c0,0.1,0,0.3,0,0.4c0,0.1,0,0.1-0.1,0.1c-0.4,0-0.9,0-1.4,0H59.4z"/>
	<path class="st0" d="M72.9,36.6h1.7c0.6,0,1.2,0,1.8,0c0.1,0,0.1,0,0.1,0.1v0.4c0,0.1,0,0.1-0.1,0.1c-0.5,0-1.2,0-1.8,0h-4.1
		c-0.5,0-1.1,0-1.6,0c-0.1,0-0.1,0-0.2-0.1c0-0.1,0-0.4,0-0.6c0.6,0,1.2,0,1.8,0h1.7V33h-0.9c-0.6,0-1,0-1.5,0c-0.1,0-0.1,0-0.1-0.1
		c0-0.1,0-0.4,0-0.6c0.5,0,0.9,0,1.6,0h2.5c0.6,0,1.1,0,1.7,0c0.1,0,0.1,0,0.1,0.1v0.5c0,0.1,0,0.1-0.1,0.1c-0.6,0-1.1,0-1.7,0h-0.8
		V36.6z"/>
	<path class="st0" d="M83.7,33.7c0.1,0,0.1,0,0.1,0c0.2,0.5,0.4,1.1,0.5,1.5c0,0.1,0,0.1-0.1,0.1l-0.2,0c-0.1,0-0.1,0-0.2,0
		c0-0.1-0.1-0.3-0.1-0.5c-0.2,0-0.4,0.1-0.7,0.1v2.6c0,1,0,1.4,0,1.4c0,0.1,0,0.1-0.1,0.1h-0.4c-0.1,0-0.1,0-0.1-0.1
		c0-0.1,0-0.4,0-1.4v-2.5c-0.3,0-0.5,0-0.8,0.1c-0.2,0-0.3,0-0.4,0.1c0,0-0.1,0-0.1,0c0,0-0.1,0-0.1-0.1c0-0.1-0.1-0.3-0.1-0.5
		c0.2,0,0.4,0,0.6,0c0.3-0.4,0.5-0.7,0.8-1.1c-0.4-0.5-0.8-0.9-1.3-1.4c-0.1,0,0-0.1,0-0.2l0.2-0.2c0.1-0.1,0.1-0.1,0.1,0l0.3,0.3
		c0.2-0.4,0.4-0.7,0.6-1.2c0.1-0.3,0.2-0.4,0.2-0.6c0.2,0.1,0.3,0.1,0.5,0.2c0.1,0,0.1,0.1,0.1,0.1c0,0.1,0,0.1-0.1,0.1
		c-0.1,0-0.1,0.1-0.2,0.2c-0.3,0.6-0.6,1-0.9,1.4l0.6,0.7c0.2-0.4,0.4-0.7,0.6-1.1c0.1-0.2,0.2-0.4,0.3-0.6c0.2,0.1,0.3,0.2,0.5,0.2
		c0.1,0,0.1,0.1,0.1,0.1c0,0.1,0,0.1-0.1,0.1c-0.1,0.1-0.2,0.2-0.3,0.4c-0.5,0.8-1,1.6-1.6,2.3c0.5,0,0.9,0,1.4-0.1
		c-0.1-0.2-0.2-0.4-0.3-0.6c0-0.1,0-0.1,0.1-0.1L83.7,33.7z M82.2,36.1c0,0,0,0.2-0.1,0.3c-0.1,0.6-0.2,1.2-0.4,1.8
		c0,0.1-0.1,0.2-0.1,0.2c0,0-0.1,0-0.1-0.1c-0.1-0.1-0.2-0.1-0.3-0.2c0.3-0.7,0.4-1.1,0.5-1.8c0-0.2,0-0.4,0-0.6
		c0.2,0,0.4,0.1,0.5,0.1c0.1,0,0.1,0,0.1,0.1C82.2,36.1,82.2,36.1,82.2,36.1z M83.8,35.8c0.1,0,0.1,0,0.1,0c0.2,0.5,0.3,1.3,0.4,1.8
		c0,0.1,0,0.1-0.1,0.1l-0.2,0c-0.1,0-0.2,0-0.2,0c0-0.6-0.2-1.4-0.3-1.9c0-0.1,0-0.1,0.1-0.1L83.8,35.8z M88.3,34
		c0,0.8,0.1,1.6,0.3,2.2c0.2-0.3,0.3-0.6,0.4-0.9c0.1-0.3,0.2-0.5,0.2-0.8c0.2,0.1,0.4,0.1,0.5,0.2c0.1,0,0.1,0.1,0.1,0.1
		c0,0.1,0,0.1-0.1,0.2c0,0.1-0.1,0.2-0.2,0.4c-0.2,0.5-0.4,1-0.7,1.4c0.2,0.8,0.5,1.3,0.7,1.3c0.1,0,0.2-0.4,0.3-1.4
		c0.1,0.1,0.2,0.2,0.3,0.3c0.1,0.1,0.2,0.1,0.1,0.2c-0.1,1.1-0.3,1.5-0.7,1.5c-0.4,0-0.8-0.5-1.1-1.4c-0.5,0.6-1,1.1-1.7,1.6
		c-0.1,0-0.1,0.1-0.1,0.1c0,0-0.1,0-0.1-0.1c-0.1-0.1-0.2-0.2-0.3-0.3c0.8-0.5,1.5-1.1,2-1.8l-0.1-0.2c-0.2-0.8-0.3-1.7-0.4-2.7
		h-2.1c-1,0-1.3,0-1.3,0c-0.1,0-0.1,0-0.1-0.1v-0.4c0-0.1,0-0.1,0.1-0.1c0,0,0.4,0,1.3,0h0.6c0.1-0.3,0.2-0.7,0.3-0.9
		c0-0.1,0-0.2,0.1-0.4c0.2,0,0.3,0.1,0.5,0.1c0.1,0,0.1,0,0.1,0.1c0,0.1,0,0.1-0.1,0.1c0,0-0.1,0.1-0.1,0.2
		c-0.1,0.2-0.2,0.5-0.3,0.8h1.1c0-0.6,0-1.2-0.1-1.9c0-0.6,0-0.9-0.1-1.2c0.2,0,0.4,0,0.6,0.1c0.1,0,0.1,0,0.1,0.1
		c0,0.1,0,0.1,0,0.2c0,0.1-0.1,0.3,0,0.8c0,0.7,0,1.3,0,1.9h0.3c1,0,1.3,0,1.3,0c0.1,0,0.1,0,0.1,0.1V34c0,0.1,0,0.1-0.1,0.1
		c0,0-0.4,0-1.3,0H88.3z M87.4,31.9C87.4,32,87.3,32,87.4,31.9C87.2,32,87,32,86.4,32h-0.9c-0.7,0-0.9,0-0.9,0c-0.1,0-0.1,0-0.1-0.1
		v-0.4c0-0.1,0-0.1,0.1-0.1c0,0,0.3,0,0.9,0h0.2v-0.3c0-0.4,0-0.6-0.1-0.9c0.2,0,0.4,0,0.6,0c0.1,0,0.1,0,0.1,0.1
		c0,0.1,0,0.1-0.1,0.2c0,0.1,0,0.2,0,0.6v0.3h0.2c0.7,0,0.9,0,0.9,0c0.1,0,0.1,0,0.1,0.1V31.9z M87.1,36.4c0,1.2,0,1.5,0,1.5
		c0,0.1,0,0.1-0.1,0.1h-0.4c-0.1,0-0.1,0-0.1-0.1v-0.2h-1.4v0.6c0,0.1,0,0.1-0.1,0.1h-0.3c-0.1,0-0.1,0-0.1-0.1c0,0,0-0.3,0-1.7
		v-0.8c0-0.8,0-1.1,0-1.1c0-0.1,0-0.1,0.1-0.1c0.1,0,0.2,0,0.8,0h0.7c0.6,0,0.7,0,0.8,0c0.1,0,0.1,0,0.1,0.1c0,0.1,0,0.3,0,0.9V36.4
		z M85.1,32.2c0.1,0,0.1,0,0.1,0.1c0.1,0.3,0.3,0.6,0.3,1c0,0.1,0,0.1-0.1,0.1l-0.2,0c-0.1,0-0.1,0-0.1,0c-0.1-0.3-0.2-0.7-0.3-1
		c0-0.1,0-0.1,0.1-0.1L85.1,32.2z M86.6,35.1h-1.4V36h1.4V35.1z M86.6,36.4h-1.4v0.9h1.4V36.4z M88.9,31c0.1,0,0.1,0,0.2,0
		c0.3,0.3,0.5,0.8,0.7,1.2c0,0.1,0,0.1-0.1,0.1l-0.2,0.1c-0.1,0.1-0.1,0-0.2,0c-0.2-0.5-0.4-0.8-0.6-1.2c0-0.1,0-0.1,0.1-0.1
		L88.9,31z"/>
	<path class="st0" d="M102.9,33.5C102.9,33.6,102.9,33.6,102.9,33.5c-0.1,0.1-0.4,0.1-1.4,0.1h-5.7v0.7c0,0.7-0.1,1.6-0.2,2.4
		c-0.1,0.7-0.3,1.5-0.8,2.2c0,0.1-0.1,0.1-0.1,0.1c0,0-0.1,0-0.1-0.1c-0.1-0.1-0.3-0.2-0.4-0.3c0.5-0.6,0.7-1.4,0.8-2.1
		s0.1-1.5,0.1-2.2c0-0.8,0-1.1,0-1.2c0-0.1,0-0.1,0.1-0.1c0.1,0,0.4,0,1.3,0h0.8c-0.1-0.3-0.3-0.6-0.4-0.9c0-0.1,0-0.1,0.1-0.1
		l0.3-0.1c0.1,0,0.1,0,0.1,0c0.2,0.3,0.4,0.7,0.5,1.1h1.8c0.2-0.3,0.3-0.5,0.4-0.8c0.1-0.1,0.1-0.3,0.1-0.4c0.2,0,0.4,0.1,0.6,0.2
		c0.1,0,0.1,0.1,0.1,0.1c0,0,0,0.1-0.1,0.1s-0.1,0.1-0.2,0.2c-0.1,0.2-0.2,0.3-0.3,0.5h1.1c1,0,1.3,0,1.3,0s0.1,0,0.1,0.1V33.5z
		 M102.7,31.8C102.7,31.9,102.7,31.9,102.7,31.8c-0.1,0.1-0.5,0.1-1.4,0.1h-4.7c-1,0-1.3,0-1.3,0c-0.1,0-0.1,0-0.1-0.1v-0.4
		c0-0.1,0-0.1,0.1-0.1c0,0,0.4,0,1.3,0h2v-0.1c0-0.4,0-0.7-0.1-0.9c0.2,0,0.5,0,0.6,0c0.1,0,0.1,0,0.1,0.1c0,0.1,0,0.1-0.1,0.2
		c0,0.1,0,0.2,0,0.6v0.1h2c1,0,1.3,0,1.3,0c0.1,0,0.1,0,0.1,0.1V31.8z M102.9,38.7C102.9,38.8,102.9,38.8,102.9,38.7
		c-0.1,0.1-0.5,0.1-1.4,0.1h-4.2c-1,0-1.3,0-1.4,0c-0.1,0-0.1,0-0.1-0.1v-0.4c0-0.1,0-0.1,0.1-0.1c0.1,0,0.4,0,1.4,0h1.8V37h-0.7
		c-0.9,0-1.2,0-1.3,0c-0.1,0-0.1,0-0.1-0.1v-0.4c0-0.1,0-0.1,0.1-0.1c0.1,0,0.3,0,1.3,0h0.7v-1.1h-1.8c-0.2,0.4-0.5,0.7-0.8,1.1
		c0,0-0.1,0.1-0.1,0.1c0,0-0.1,0-0.1-0.1c-0.1-0.1-0.2-0.2-0.3-0.2c0.6-0.6,1-1.2,1.2-1.9c0-0.1,0.1-0.3,0.1-0.5
		c0.2,0,0.4,0.1,0.5,0.2c0.1,0,0.1,0.1,0.1,0.1c0,0,0,0.1-0.1,0.1c0,0-0.1,0.1-0.2,0.3c-0.1,0.1-0.1,0.3-0.2,0.4h1.6v-0.2
		c0-0.4,0-0.6-0.1-0.9c0.2,0,0.4,0,0.6,0c0.1,0,0.1,0,0.1,0.1c0,0.1,0,0.1-0.1,0.2c0,0.1-0.1,0.2-0.1,0.6v0.1h1.2c0.9,0,1.2,0,1.3,0
		c0.1,0,0.1,0,0.1,0.1v0.4c0,0.1,0,0.1-0.1,0.1c-0.1,0-0.4,0-1.3,0h-1.2v1.1h0.9c0.9,0,1.2,0,1.3,0c0.1,0,0.1,0,0.1,0.1v0.4
		c0,0.1,0,0.1-0.1,0.1c0,0-0.3,0-1.3,0h-0.9v1.3h1.8c1,0,1.3,0,1.4,0c0.1,0,0.1,0,0.1,0.1V38.7z"/>
</g>
<path class="st0" d="M7.3,19.8c-2.6,0-5.1-1-6.9-2.8l-0.3-0.3L2,14.4l0.3,0.3c1.4,1.4,3.2,2.1,5,2.1c2.2,0,3.5-0.9,3.5-2.4
	c0-1.6-1.1-2.1-2.9-2.8l-2.8-1.2c-1-0.4-4.2-1.7-4.2-5.1c0-3,2.7-5.2,6.4-5.2c2.2,0,4.4,0.9,5.9,2.4l0.3,0.3l-1.7,2.1l-0.3-0.3
	C10.4,3.5,9,3,7.4,3C5.9,3,4.3,3.5,4.3,5.2c0,1.3,1.2,1.9,2.9,2.6l2.6,1.2c2,0.8,4.3,2.1,4.3,5.2C14.1,17.5,11.3,19.8,7.3,19.8z"/>
<polygon points="39.7,19.5 39.7,11.6 31.1,11.6 31.1,19.5 27.4,19.5 27.4,0.3 31.1,0.3 31.1,8.1 39.7,8.1 39.7,0.3 43.5,0.3 
	43.5,19.5 "/>
<rect x="57.5" y="0.3" width="3.8" height="19.2"/>
<path d="M118.1,19.5l-1.8-4.4h-8.7l-1.8,4.4h-3.8l8.2-19.3h3.6l8.2,19.3H118.1z M108.9,11.8h6.1l-3-7.4L108.9,11.8z"/>
<polygon points="132.5,19.5 132.5,0.3 146.8,0.3 146.8,3.6 136.3,3.6 136.3,8.2 145.6,8.2 145.6,11.5 136.3,11.5 136.3,16.2 
	147,16.2 147,19.5 "/>
<path d="M87.6,19.4l-4.7-9.6h1.3c2.2,0,3.6-1.2,3.6-3.1c0-2-1.3-3.2-3.7-3.2h-4.6v15.8h-3.8V0.2h8.7c2.4,0,4.3,0.7,5.6,1.9
	c1.1,1.1,1.6,2.5,1.6,4.3c0,2.5-1.1,4.4-3.1,5.5l-0.5,0.2l3.6,7.2H87.6z"/>
</svg>
