<svg enable-background="new 0 0 239.3 21.6" viewBox="0 0 239.3 21.6" xmlns="http://www.w3.org/2000/svg"><path d="m1 17.9 1.5-1.7c1.5 1.5 3.5 2.4 5.7 2.4 2.7 0 4.2-1.3 4.2-3 0-2.1-1.5-2.7-3.5-3.5l-2.8-1.2c-1.9-.8-4.2-2.1-4.2-5s2.7-5.1 6.3-5.1c2.4 0 4.5 1 6 2.4l-1.3 1.6c-1.3-1.1-2.7-1.8-4.7-1.8-2.2-.1-3.8 1-3.8 2.7 0 1.9 1.8 2.5 3.5 3.2l2.7 1.2c2.4.9 4.3 2.3 4.3 5.2 0 3.1-2.6 5.5-6.8 5.5-2.9 0-5.3-1.1-7.1-2.9z" stroke="#000" stroke-miterlimit="10" stroke-width="1.5024"/><path d="m35 20.5v-7.9h-8v7.9h-4.3v-19.8h4.3v7.8h8v-7.8h4.3v19.7h-4.3z"/><path d="m48.2 20.5v-19.8h4.3v19.7h-4.3z"/><path d="m74 20.5-4.2-6.3h-3.4v6.3h-4.4v-19.8h9c2.3 0 4.2.6 5.5 1.7s2 2.7 2 4.8v.1c0 1.6-.4 2.9-1.2 3.9s-1.8 1.7-3.1 2.2l4.8 7h-5zm.1-13c0-.9-.3-1.6-.9-2.1s-1.4-.7-2.5-.7h-4.3v5.7h4.4c1.1 0 1.9-.3 2.5-.8.5-.6.8-1.2.8-2.1z"/><path d="m99.4 20.5-1.8-4.5h-8.3l-1.8 4.4h-4.5l8.5-19.9h4l8.5 19.9h-4.6zm-6-14.7-2.6 6.4h5.2z"/><path d="m109.8 20.5v-19.8h14.9v3.9h-10.7v4h9.3v3.9h-9.3v4.1h10.7v3.9z"/><path d="m158.9 10.6c-.4.9-1 1.6-1.7 2.2s-1.6 1-2.5 1.3c-1 .3-2 .4-3.1.4h-3.3v5.9h-4.3v-19.7h8.1c1.2 0 2.2.2 3.2.5.9.3 1.7.8 2.4 1.4s1.1 1.3 1.5 2.2c.3.8.5 1.8.5 2.8v.1c-.2 1-.4 2-.8 2.9zm-3.8-3c0-1-.3-1.7-.9-2.2s-1.5-.8-2.6-.8h-3.4v6h3.4c1.1 0 1.9-.3 2.5-.9s1-1.2 1-2.1z"/><path d="m165.2 20.5v-19.8h4.3v19.7h-4.3z"/><path d="m177.8 20.5v-19.8h14.9v3.9h-10.6v4h9.3v3.9h-9.3v4.1h10.7v3.9z"/><path d="m215.9 18.7c-.5.4-1.1.8-1.8 1.1-.6.3-1.4.5-2.1.7-.8.2-1.6.2-2.6.2-1.4 0-2.8-.3-4-.8s-2.3-1.2-3.2-2.2c-.9-.9-1.6-2-2.1-3.2s-.8-2.6-.8-4v-.1c0-1.4.3-2.7.8-4s1.2-2.3 2.1-3.2 2-1.7 3.2-2.2c1.3-.5 2.7-.8 4.2-.8.9 0 1.8.1 2.5.2.8.2 1.5.4 2.1.6.6.3 1.2.6 1.7 1s1 .8 1.5 1.2l-2.8 3.2c-.8-.7-1.6-1.2-2.4-1.6s-1.7-.6-2.7-.6c-.8 0-1.6.2-2.3.5s-1.3.8-1.8 1.3c-.5.6-.9 1.2-1.2 2-.3.7-.4 1.5-.4 2.4v.1c0 .8.1 1.6.4 2.4s.7 1.4 1.2 2 1.1 1 1.8 1.3 1.5.5 2.3.5c1.1 0 2.1-.2 2.9-.6s1.6-1 2.3-1.7l2.8 2.8c-.6.6-1.1 1.1-1.6 1.5z"/><path d="m224.3 20.5v-19.8h14.9v3.9h-10.6v4h9.3v3.9h-9.3v4.1h10.7v3.9z"/></svg>